<mxfile host="" modified="2021-02-06T23:17:12.209Z" agent="5.0 (Macintosh; Intel Mac OS X 10_16_0) AppleWebKit/537.36 (KHTML, like Gecko) Chrome/84.0.4147.105 Safari/537.36" etag="fLSk0fIqV6SgPQn6Lenj" version="13.7.9" type="embed"><diagram id="v0f5tUeEjrTnGeBOWBZF" name="Page-1"><mxGraphModel dx="636" dy="465" grid="1" gridSize="10" guides="1" tooltips="1" connect="1" arrows="1" fold="1" page="1" pageScale="1" pageWidth="1600" pageHeight="900" math="0" shadow="0"><root><mxCell id="0"/><mxCell id="1" parent="0"/><mxCell id="9DhNV3CGlzZHcyGwgHfw-4" value="Container" style="swimlane;" parent="1" vertex="1"><mxGeometry x="1600" width="1600" height="1800" as="geometry"/></mxCell><mxCell id="9DhNV3CGlzZHcyGwgHfw-1" value="" style="rounded=0;whiteSpace=wrap;html=1;fillColor=#e1d5e7;strokeColor=#9673a6;fontColor=#000000;" parent="9DhNV3CGlzZHcyGwgHfw-4" vertex="1"><mxGeometry x="510" y="400" width="340" height="450" as="geometry"/></mxCell><mxCell id="p5aGoZD3rxq6KE_4j5Kq-249" value="" style="rounded=0;whiteSpace=wrap;html=1;fillColor=#f8cecc;strokeColor=#b85450;fontColor=#000000;" parent="9DhNV3CGlzZHcyGwgHfw-4" vertex="1"><mxGeometry x="520" y="440" width="320" height="320" as="geometry"/></mxCell><mxCell id="p5aGoZD3rxq6KE_4j5Kq-256" value="Mission" style="text;html=1;strokeColor=none;fillColor=none;align=center;verticalAlign=middle;whiteSpace=wrap;rounded=0;fontColor=#000000;" parent="9DhNV3CGlzZHcyGwgHfw-4" vertex="1"><mxGeometry x="660" y="440" width="40" height="20" as="geometry"/></mxCell><mxCell id="p5aGoZD3rxq6KE_4j5Kq-240" value="" style="rounded=0;whiteSpace=wrap;html=1;fillColor=#dae8fc;strokeColor=#6c8ebf;fontColor=#000000;" parent="9DhNV3CGlzZHcyGwgHfw-4" vertex="1"><mxGeometry x="530" y="470" width="300" height="280" as="geometry"/></mxCell><mxCell id="p5aGoZD3rxq6KE_4j5Kq-241" value="Task" style="text;html=1;strokeColor=none;fillColor=none;align=center;verticalAlign=middle;whiteSpace=wrap;rounded=0;fontColor=#000000;" parent="9DhNV3CGlzZHcyGwgHfw-4" vertex="1"><mxGeometry x="660" y="470" width="40" height="20" as="geometry"/></mxCell><mxCell id="p5aGoZD3rxq6KE_4j5Kq-205" value="" style="group;fontColor=#000000;" parent="9DhNV3CGlzZHcyGwgHfw-4" vertex="1" connectable="0"><mxGeometry x="30" y="220" width="440" height="660" as="geometry"/></mxCell><mxCell id="p5aGoZD3rxq6KE_4j5Kq-204" value="" style="endArrow=classic;startArrow=classic;html=1;entryX=0;entryY=0.5;entryDx=0;entryDy=0;entryPerimeter=0;exitX=0;exitY=0.5;exitDx=0;exitDy=0;exitPerimeter=0;fontColor=#000000;" parent="p5aGoZD3rxq6KE_4j5Kq-205" source="p5aGoZD3rxq6KE_4j5Kq-199" target="p5aGoZD3rxq6KE_4j5Kq-201" edge="1"><mxGeometry width="50" height="50" relative="1" as="geometry"><mxPoint x="290" y="150" as="sourcePoint"/><mxPoint x="340" y="100" as="targetPoint"/><Array as="points"><mxPoint x="270" y="50"/></Array></mxGeometry></mxCell><mxCell id="p5aGoZD3rxq6KE_4j5Kq-176" value="" style="group;fontColor=#000000;" parent="p5aGoZD3rxq6KE_4j5Kq-205" vertex="1" connectable="0"><mxGeometry x="160" y="10" width="120" height="80" as="geometry"/></mxCell><mxCell id="p5aGoZD3rxq6KE_4j5Kq-173" value="" style="ellipse;whiteSpace=wrap;html=1;fillColor=#dae8fc;strokeColor=#6c8ebf;fontColor=#000000;" parent="p5aGoZD3rxq6KE_4j5Kq-176" vertex="1"><mxGeometry width="120" height="80" as="geometry"/></mxCell><mxCell id="p5aGoZD3rxq6KE_4j5Kq-174" value="Owner" style="text;html=1;strokeColor=none;fillColor=none;align=center;verticalAlign=middle;whiteSpace=wrap;rounded=0;fontColor=#000000;" parent="p5aGoZD3rxq6KE_4j5Kq-176" vertex="1"><mxGeometry x="40" y="30" width="40" height="20" as="geometry"/></mxCell><mxCell id="p5aGoZD3rxq6KE_4j5Kq-169" value="" style="group;fontColor=#000000;" parent="p5aGoZD3rxq6KE_4j5Kq-205" vertex="1" connectable="0"><mxGeometry y="161.2" width="440" height="360" as="geometry"/></mxCell><mxCell id="p5aGoZD3rxq6KE_4j5Kq-165" value="" style="rounded=0;whiteSpace=wrap;html=1;fillColor=#e1d5e7;strokeColor=#9673a6;fontColor=#000000;" parent="p5aGoZD3rxq6KE_4j5Kq-169" vertex="1"><mxGeometry width="440" height="360" as="geometry"/></mxCell><mxCell id="p5aGoZD3rxq6KE_4j5Kq-15" value="" style="rounded=0;whiteSpace=wrap;html=1;fillColor=#f8cecc;strokeColor=#b85450;fontColor=#000000;" parent="p5aGoZD3rxq6KE_4j5Kq-169" vertex="1"><mxGeometry x="15" y="50" width="200" height="140" as="geometry"/></mxCell><mxCell id="p5aGoZD3rxq6KE_4j5Kq-9" value="" style="rounded=0;whiteSpace=wrap;html=1;fillColor=#dae8fc;strokeColor=#6c8ebf;fontColor=#000000;" parent="p5aGoZD3rxq6KE_4j5Kq-169" vertex="1"><mxGeometry x="30" y="90" width="50" height="90" as="geometry"/></mxCell><mxCell id="p5aGoZD3rxq6KE_4j5Kq-10" value="Task" style="text;html=1;strokeColor=none;fillColor=none;align=center;verticalAlign=middle;whiteSpace=wrap;rounded=0;fontColor=#000000;" parent="p5aGoZD3rxq6KE_4j5Kq-169" vertex="1"><mxGeometry x="35" y="95" width="40" height="20" as="geometry"/></mxCell><mxCell id="p5aGoZD3rxq6KE_4j5Kq-11" value="" style="rounded=0;whiteSpace=wrap;html=1;fillColor=#dae8fc;strokeColor=#6c8ebf;fontColor=#000000;" parent="p5aGoZD3rxq6KE_4j5Kq-169" vertex="1"><mxGeometry x="90" y="90" width="50" height="90" as="geometry"/></mxCell><mxCell id="p5aGoZD3rxq6KE_4j5Kq-12" value="Task" style="text;html=1;strokeColor=none;fillColor=none;align=center;verticalAlign=middle;whiteSpace=wrap;rounded=0;fontColor=#000000;" parent="p5aGoZD3rxq6KE_4j5Kq-169" vertex="1"><mxGeometry x="95" y="95" width="40" height="20" as="geometry"/></mxCell><mxCell id="p5aGoZD3rxq6KE_4j5Kq-13" value="" style="rounded=0;whiteSpace=wrap;html=1;fillColor=#dae8fc;strokeColor=#6c8ebf;fontColor=#000000;" parent="p5aGoZD3rxq6KE_4j5Kq-169" vertex="1"><mxGeometry x="150" y="90" width="50" height="90" as="geometry"/></mxCell><mxCell id="p5aGoZD3rxq6KE_4j5Kq-14" value="Task" style="text;html=1;strokeColor=none;fillColor=none;align=center;verticalAlign=middle;whiteSpace=wrap;rounded=0;fontColor=#000000;" parent="p5aGoZD3rxq6KE_4j5Kq-169" vertex="1"><mxGeometry x="155" y="95" width="40" height="20" as="geometry"/></mxCell><mxCell id="p5aGoZD3rxq6KE_4j5Kq-16" value="Mission" style="text;html=1;strokeColor=none;fillColor=none;align=center;verticalAlign=middle;whiteSpace=wrap;rounded=0;fontColor=#000000;" parent="p5aGoZD3rxq6KE_4j5Kq-169" vertex="1"><mxGeometry x="95" y="60" width="40" height="20" as="geometry"/></mxCell><mxCell id="p5aGoZD3rxq6KE_4j5Kq-17" value="" style="rounded=0;whiteSpace=wrap;html=1;fillColor=#f8cecc;strokeColor=#b85450;fontColor=#000000;" parent="p5aGoZD3rxq6KE_4j5Kq-169" vertex="1"><mxGeometry x="230" y="50" width="200" height="140" as="geometry"/></mxCell><mxCell id="p5aGoZD3rxq6KE_4j5Kq-18" value="" style="rounded=0;whiteSpace=wrap;html=1;fillColor=#dae8fc;strokeColor=#6c8ebf;fontColor=#000000;" parent="p5aGoZD3rxq6KE_4j5Kq-169" vertex="1"><mxGeometry x="245" y="90" width="50" height="90" as="geometry"/></mxCell><mxCell id="p5aGoZD3rxq6KE_4j5Kq-19" value="Task" style="text;html=1;strokeColor=none;fillColor=none;align=center;verticalAlign=middle;whiteSpace=wrap;rounded=0;fontColor=#000000;" parent="p5aGoZD3rxq6KE_4j5Kq-169" vertex="1"><mxGeometry x="250" y="95" width="40" height="20" as="geometry"/></mxCell><mxCell id="p5aGoZD3rxq6KE_4j5Kq-20" value="" style="rounded=0;whiteSpace=wrap;html=1;fillColor=#dae8fc;strokeColor=#6c8ebf;fontColor=#000000;" parent="p5aGoZD3rxq6KE_4j5Kq-169" vertex="1"><mxGeometry x="305" y="90" width="50" height="90" as="geometry"/></mxCell><mxCell id="p5aGoZD3rxq6KE_4j5Kq-21" value="Task" style="text;html=1;strokeColor=none;fillColor=none;align=center;verticalAlign=middle;whiteSpace=wrap;rounded=0;fontColor=#000000;" parent="p5aGoZD3rxq6KE_4j5Kq-169" vertex="1"><mxGeometry x="310" y="95" width="40" height="20" as="geometry"/></mxCell><mxCell id="p5aGoZD3rxq6KE_4j5Kq-22" value="" style="rounded=0;whiteSpace=wrap;html=1;fillColor=#dae8fc;strokeColor=#6c8ebf;fontColor=#000000;" parent="p5aGoZD3rxq6KE_4j5Kq-169" vertex="1"><mxGeometry x="365" y="90" width="50" height="90" as="geometry"/></mxCell><mxCell id="p5aGoZD3rxq6KE_4j5Kq-23" value="Task" style="text;html=1;strokeColor=none;fillColor=none;align=center;verticalAlign=middle;whiteSpace=wrap;rounded=0;fontColor=#000000;" parent="p5aGoZD3rxq6KE_4j5Kq-169" vertex="1"><mxGeometry x="370" y="95" width="40" height="20" as="geometry"/></mxCell><mxCell id="p5aGoZD3rxq6KE_4j5Kq-24" value="Mission" style="text;html=1;strokeColor=none;fillColor=none;align=center;verticalAlign=middle;whiteSpace=wrap;rounded=0;fontColor=#000000;" parent="p5aGoZD3rxq6KE_4j5Kq-169" vertex="1"><mxGeometry x="310" y="60" width="40" height="20" as="geometry"/></mxCell><mxCell id="p5aGoZD3rxq6KE_4j5Kq-25" value="" style="rounded=0;whiteSpace=wrap;html=1;fillColor=#f8cecc;strokeColor=#b85450;fontColor=#000000;" parent="p5aGoZD3rxq6KE_4j5Kq-169" vertex="1"><mxGeometry x="15" y="210" width="200" height="140" as="geometry"/></mxCell><mxCell id="p5aGoZD3rxq6KE_4j5Kq-26" value="" style="rounded=0;whiteSpace=wrap;html=1;fillColor=#dae8fc;strokeColor=#6c8ebf;fontColor=#000000;" parent="p5aGoZD3rxq6KE_4j5Kq-169" vertex="1"><mxGeometry x="30" y="250" width="50" height="90" as="geometry"/></mxCell><mxCell id="p5aGoZD3rxq6KE_4j5Kq-27" value="Task" style="text;html=1;strokeColor=none;fillColor=none;align=center;verticalAlign=middle;whiteSpace=wrap;rounded=0;fontColor=#000000;" parent="p5aGoZD3rxq6KE_4j5Kq-169" vertex="1"><mxGeometry x="35" y="255" width="40" height="20" as="geometry"/></mxCell><mxCell id="p5aGoZD3rxq6KE_4j5Kq-28" value="" style="rounded=0;whiteSpace=wrap;html=1;fillColor=#dae8fc;strokeColor=#6c8ebf;fontColor=#000000;" parent="p5aGoZD3rxq6KE_4j5Kq-169" vertex="1"><mxGeometry x="90" y="250" width="50" height="90" as="geometry"/></mxCell><mxCell id="p5aGoZD3rxq6KE_4j5Kq-29" value="Task" style="text;html=1;strokeColor=none;fillColor=none;align=center;verticalAlign=middle;whiteSpace=wrap;rounded=0;fontColor=#000000;" parent="p5aGoZD3rxq6KE_4j5Kq-169" vertex="1"><mxGeometry x="95" y="255" width="40" height="20" as="geometry"/></mxCell><mxCell id="p5aGoZD3rxq6KE_4j5Kq-30" value="" style="rounded=0;whiteSpace=wrap;html=1;fillColor=#dae8fc;strokeColor=#6c8ebf;fontColor=#000000;" parent="p5aGoZD3rxq6KE_4j5Kq-169" vertex="1"><mxGeometry x="150" y="250" width="50" height="90" as="geometry"/></mxCell><mxCell id="p5aGoZD3rxq6KE_4j5Kq-31" value="Task" style="text;html=1;strokeColor=none;fillColor=none;align=center;verticalAlign=middle;whiteSpace=wrap;rounded=0;fontColor=#000000;" parent="p5aGoZD3rxq6KE_4j5Kq-169" vertex="1"><mxGeometry x="155" y="255" width="40" height="20" as="geometry"/></mxCell><mxCell id="p5aGoZD3rxq6KE_4j5Kq-32" value="Mission" style="text;html=1;strokeColor=none;fillColor=none;align=center;verticalAlign=middle;whiteSpace=wrap;rounded=0;fontColor=#000000;" parent="p5aGoZD3rxq6KE_4j5Kq-169" vertex="1"><mxGeometry x="95" y="220" width="40" height="20" as="geometry"/></mxCell><mxCell id="p5aGoZD3rxq6KE_4j5Kq-33" value="" style="rounded=0;whiteSpace=wrap;html=1;fillColor=#d5e8d4;strokeColor=#82b366;fontColor=#000000;" parent="p5aGoZD3rxq6KE_4j5Kq-169" vertex="1"><mxGeometry x="35" y="115" width="40" height="20" as="geometry"/></mxCell><mxCell id="p5aGoZD3rxq6KE_4j5Kq-34" value="Sub" style="text;html=1;strokeColor=none;fillColor=none;align=center;verticalAlign=middle;whiteSpace=wrap;rounded=0;fontColor=#000000;" parent="p5aGoZD3rxq6KE_4j5Kq-169" vertex="1"><mxGeometry x="35" y="115" width="40" height="20" as="geometry"/></mxCell><mxCell id="p5aGoZD3rxq6KE_4j5Kq-35" value="" style="rounded=0;whiteSpace=wrap;html=1;fillColor=#d5e8d4;strokeColor=#82b366;fontColor=#000000;" parent="p5aGoZD3rxq6KE_4j5Kq-169" vertex="1"><mxGeometry x="35" y="135" width="40" height="20" as="geometry"/></mxCell><mxCell id="p5aGoZD3rxq6KE_4j5Kq-36" value="Sub" style="text;html=1;strokeColor=none;fillColor=none;align=center;verticalAlign=middle;whiteSpace=wrap;rounded=0;fontColor=#000000;" parent="p5aGoZD3rxq6KE_4j5Kq-169" vertex="1"><mxGeometry x="35" y="135" width="40" height="20" as="geometry"/></mxCell><mxCell id="p5aGoZD3rxq6KE_4j5Kq-37" value="" style="rounded=0;whiteSpace=wrap;html=1;fillColor=#d5e8d4;strokeColor=#82b366;fontColor=#000000;" parent="p5aGoZD3rxq6KE_4j5Kq-169" vertex="1"><mxGeometry x="35" y="155" width="40" height="20" as="geometry"/></mxCell><mxCell id="p5aGoZD3rxq6KE_4j5Kq-38" value="Sub" style="text;html=1;strokeColor=none;fillColor=none;align=center;verticalAlign=middle;whiteSpace=wrap;rounded=0;fontColor=#000000;" parent="p5aGoZD3rxq6KE_4j5Kq-169" vertex="1"><mxGeometry x="35" y="155" width="40" height="20" as="geometry"/></mxCell><mxCell id="p5aGoZD3rxq6KE_4j5Kq-39" value="" style="rounded=0;whiteSpace=wrap;html=1;fillColor=#d5e8d4;strokeColor=#82b366;fontColor=#000000;" parent="p5aGoZD3rxq6KE_4j5Kq-169" vertex="1"><mxGeometry x="95" y="115" width="40" height="20" as="geometry"/></mxCell><mxCell id="p5aGoZD3rxq6KE_4j5Kq-40" value="Sub" style="text;html=1;strokeColor=none;fillColor=none;align=center;verticalAlign=middle;whiteSpace=wrap;rounded=0;fontColor=#000000;" parent="p5aGoZD3rxq6KE_4j5Kq-169" vertex="1"><mxGeometry x="95" y="115" width="40" height="20" as="geometry"/></mxCell><mxCell id="p5aGoZD3rxq6KE_4j5Kq-41" value="" style="rounded=0;whiteSpace=wrap;html=1;fillColor=#d5e8d4;strokeColor=#82b366;fontColor=#000000;" parent="p5aGoZD3rxq6KE_4j5Kq-169" vertex="1"><mxGeometry x="95" y="135" width="40" height="20" as="geometry"/></mxCell><mxCell id="p5aGoZD3rxq6KE_4j5Kq-42" value="Sub" style="text;html=1;strokeColor=none;fillColor=none;align=center;verticalAlign=middle;whiteSpace=wrap;rounded=0;fontColor=#000000;" parent="p5aGoZD3rxq6KE_4j5Kq-169" vertex="1"><mxGeometry x="95" y="135" width="40" height="20" as="geometry"/></mxCell><mxCell id="p5aGoZD3rxq6KE_4j5Kq-43" value="" style="rounded=0;whiteSpace=wrap;html=1;fillColor=#d5e8d4;strokeColor=#82b366;fontColor=#000000;" parent="p5aGoZD3rxq6KE_4j5Kq-169" vertex="1"><mxGeometry x="95" y="155" width="40" height="20" as="geometry"/></mxCell><mxCell id="p5aGoZD3rxq6KE_4j5Kq-44" value="Sub" style="text;html=1;strokeColor=none;fillColor=none;align=center;verticalAlign=middle;whiteSpace=wrap;rounded=0;fontColor=#000000;" parent="p5aGoZD3rxq6KE_4j5Kq-169" vertex="1"><mxGeometry x="95" y="155" width="40" height="20" as="geometry"/></mxCell><mxCell id="p5aGoZD3rxq6KE_4j5Kq-45" value="" style="rounded=0;whiteSpace=wrap;html=1;fillColor=#d5e8d4;strokeColor=#82b366;fontColor=#000000;" parent="p5aGoZD3rxq6KE_4j5Kq-169" vertex="1"><mxGeometry x="155" y="115" width="40" height="20" as="geometry"/></mxCell><mxCell id="p5aGoZD3rxq6KE_4j5Kq-46" value="Sub" style="text;html=1;strokeColor=none;fillColor=none;align=center;verticalAlign=middle;whiteSpace=wrap;rounded=0;fontColor=#000000;" parent="p5aGoZD3rxq6KE_4j5Kq-169" vertex="1"><mxGeometry x="155" y="115" width="40" height="20" as="geometry"/></mxCell><mxCell id="p5aGoZD3rxq6KE_4j5Kq-47" value="" style="rounded=0;whiteSpace=wrap;html=1;fillColor=#d5e8d4;strokeColor=#82b366;fontColor=#000000;" parent="p5aGoZD3rxq6KE_4j5Kq-169" vertex="1"><mxGeometry x="155" y="135" width="40" height="20" as="geometry"/></mxCell><mxCell id="p5aGoZD3rxq6KE_4j5Kq-48" value="Sub" style="text;html=1;strokeColor=none;fillColor=none;align=center;verticalAlign=middle;whiteSpace=wrap;rounded=0;fontColor=#000000;" parent="p5aGoZD3rxq6KE_4j5Kq-169" vertex="1"><mxGeometry x="155" y="135" width="40" height="20" as="geometry"/></mxCell><mxCell id="p5aGoZD3rxq6KE_4j5Kq-49" value="" style="rounded=0;whiteSpace=wrap;html=1;fillColor=#d5e8d4;strokeColor=#82b366;fontColor=#000000;" parent="p5aGoZD3rxq6KE_4j5Kq-169" vertex="1"><mxGeometry x="155" y="155" width="40" height="20" as="geometry"/></mxCell><mxCell id="p5aGoZD3rxq6KE_4j5Kq-50" value="Sub" style="text;html=1;strokeColor=none;fillColor=none;align=center;verticalAlign=middle;whiteSpace=wrap;rounded=0;fontColor=#000000;" parent="p5aGoZD3rxq6KE_4j5Kq-169" vertex="1"><mxGeometry x="155" y="155" width="40" height="20" as="geometry"/></mxCell><mxCell id="p5aGoZD3rxq6KE_4j5Kq-51" value="" style="rounded=0;whiteSpace=wrap;html=1;fillColor=#d5e8d4;strokeColor=#82b366;fontColor=#000000;" parent="p5aGoZD3rxq6KE_4j5Kq-169" vertex="1"><mxGeometry x="250" y="115" width="40" height="20" as="geometry"/></mxCell><mxCell id="p5aGoZD3rxq6KE_4j5Kq-52" value="Sub" style="text;html=1;strokeColor=none;fillColor=none;align=center;verticalAlign=middle;whiteSpace=wrap;rounded=0;fontColor=#000000;" parent="p5aGoZD3rxq6KE_4j5Kq-169" vertex="1"><mxGeometry x="250" y="115" width="40" height="20" as="geometry"/></mxCell><mxCell id="p5aGoZD3rxq6KE_4j5Kq-53" value="" style="rounded=0;whiteSpace=wrap;html=1;fillColor=#d5e8d4;strokeColor=#82b366;fontColor=#000000;" parent="p5aGoZD3rxq6KE_4j5Kq-169" vertex="1"><mxGeometry x="250" y="135" width="40" height="20" as="geometry"/></mxCell><mxCell id="p5aGoZD3rxq6KE_4j5Kq-54" value="Sub" style="text;html=1;strokeColor=none;fillColor=none;align=center;verticalAlign=middle;whiteSpace=wrap;rounded=0;fontColor=#000000;" parent="p5aGoZD3rxq6KE_4j5Kq-169" vertex="1"><mxGeometry x="250" y="135" width="40" height="20" as="geometry"/></mxCell><mxCell id="p5aGoZD3rxq6KE_4j5Kq-55" value="" style="rounded=0;whiteSpace=wrap;html=1;fillColor=#d5e8d4;strokeColor=#82b366;fontColor=#000000;" parent="p5aGoZD3rxq6KE_4j5Kq-169" vertex="1"><mxGeometry x="250" y="155" width="40" height="20" as="geometry"/></mxCell><mxCell id="p5aGoZD3rxq6KE_4j5Kq-56" value="Sub" style="text;html=1;strokeColor=none;fillColor=none;align=center;verticalAlign=middle;whiteSpace=wrap;rounded=0;fontColor=#000000;" parent="p5aGoZD3rxq6KE_4j5Kq-169" vertex="1"><mxGeometry x="250" y="155" width="40" height="20" as="geometry"/></mxCell><mxCell id="p5aGoZD3rxq6KE_4j5Kq-69" value="" style="rounded=0;whiteSpace=wrap;html=1;fillColor=#d5e8d4;strokeColor=#82b366;fontColor=#000000;" parent="p5aGoZD3rxq6KE_4j5Kq-169" vertex="1"><mxGeometry x="310" y="115" width="40" height="20" as="geometry"/></mxCell><mxCell id="p5aGoZD3rxq6KE_4j5Kq-70" value="Sub" style="text;html=1;strokeColor=none;fillColor=none;align=center;verticalAlign=middle;whiteSpace=wrap;rounded=0;fontColor=#000000;" parent="p5aGoZD3rxq6KE_4j5Kq-169" vertex="1"><mxGeometry x="310" y="115" width="40" height="20" as="geometry"/></mxCell><mxCell id="p5aGoZD3rxq6KE_4j5Kq-71" value="" style="rounded=0;whiteSpace=wrap;html=1;fillColor=#d5e8d4;strokeColor=#82b366;fontColor=#000000;" parent="p5aGoZD3rxq6KE_4j5Kq-169" vertex="1"><mxGeometry x="310" y="135" width="40" height="20" as="geometry"/></mxCell><mxCell id="p5aGoZD3rxq6KE_4j5Kq-72" value="Sub" style="text;html=1;strokeColor=none;fillColor=none;align=center;verticalAlign=middle;whiteSpace=wrap;rounded=0;fontColor=#000000;" parent="p5aGoZD3rxq6KE_4j5Kq-169" vertex="1"><mxGeometry x="310" y="135" width="40" height="20" as="geometry"/></mxCell><mxCell id="p5aGoZD3rxq6KE_4j5Kq-73" value="" style="rounded=0;whiteSpace=wrap;html=1;fillColor=#d5e8d4;strokeColor=#82b366;fontColor=#000000;" parent="p5aGoZD3rxq6KE_4j5Kq-169" vertex="1"><mxGeometry x="310" y="155" width="40" height="20" as="geometry"/></mxCell><mxCell id="p5aGoZD3rxq6KE_4j5Kq-74" value="Sub" style="text;html=1;strokeColor=none;fillColor=none;align=center;verticalAlign=middle;whiteSpace=wrap;rounded=0;fontColor=#000000;" parent="p5aGoZD3rxq6KE_4j5Kq-169" vertex="1"><mxGeometry x="310" y="155" width="40" height="20" as="geometry"/></mxCell><mxCell id="p5aGoZD3rxq6KE_4j5Kq-75" value="" style="rounded=0;whiteSpace=wrap;html=1;fillColor=#d5e8d4;strokeColor=#82b366;fontColor=#000000;" parent="p5aGoZD3rxq6KE_4j5Kq-169" vertex="1"><mxGeometry x="370" y="115" width="40" height="20" as="geometry"/></mxCell><mxCell id="p5aGoZD3rxq6KE_4j5Kq-76" value="Sub" style="text;html=1;strokeColor=none;fillColor=none;align=center;verticalAlign=middle;whiteSpace=wrap;rounded=0;fontColor=#000000;" parent="p5aGoZD3rxq6KE_4j5Kq-169" vertex="1"><mxGeometry x="370" y="115" width="40" height="20" as="geometry"/></mxCell><mxCell id="p5aGoZD3rxq6KE_4j5Kq-77" value="" style="rounded=0;whiteSpace=wrap;html=1;fillColor=#d5e8d4;strokeColor=#82b366;fontColor=#000000;" parent="p5aGoZD3rxq6KE_4j5Kq-169" vertex="1"><mxGeometry x="370" y="135" width="40" height="20" as="geometry"/></mxCell><mxCell id="p5aGoZD3rxq6KE_4j5Kq-78" value="Sub" style="text;html=1;strokeColor=none;fillColor=none;align=center;verticalAlign=middle;whiteSpace=wrap;rounded=0;fontColor=#000000;" parent="p5aGoZD3rxq6KE_4j5Kq-169" vertex="1"><mxGeometry x="370" y="135" width="40" height="20" as="geometry"/></mxCell><mxCell id="p5aGoZD3rxq6KE_4j5Kq-79" value="" style="rounded=0;whiteSpace=wrap;html=1;fillColor=#d5e8d4;strokeColor=#82b366;fontColor=#000000;" parent="p5aGoZD3rxq6KE_4j5Kq-169" vertex="1"><mxGeometry x="370" y="155" width="40" height="20" as="geometry"/></mxCell><mxCell id="p5aGoZD3rxq6KE_4j5Kq-80" value="Sub" style="text;html=1;strokeColor=none;fillColor=none;align=center;verticalAlign=middle;whiteSpace=wrap;rounded=0;fontColor=#000000;" parent="p5aGoZD3rxq6KE_4j5Kq-169" vertex="1"><mxGeometry x="370" y="155" width="40" height="20" as="geometry"/></mxCell><mxCell id="p5aGoZD3rxq6KE_4j5Kq-93" value="" style="rounded=0;whiteSpace=wrap;html=1;fillColor=#d5e8d4;strokeColor=#82b366;fontColor=#000000;" parent="p5aGoZD3rxq6KE_4j5Kq-169" vertex="1"><mxGeometry x="35" y="275" width="40" height="20" as="geometry"/></mxCell><mxCell id="p5aGoZD3rxq6KE_4j5Kq-94" value="Sub" style="text;html=1;strokeColor=none;fillColor=none;align=center;verticalAlign=middle;whiteSpace=wrap;rounded=0;fontColor=#000000;" parent="p5aGoZD3rxq6KE_4j5Kq-169" vertex="1"><mxGeometry x="35" y="275" width="40" height="20" as="geometry"/></mxCell><mxCell id="p5aGoZD3rxq6KE_4j5Kq-95" value="" style="rounded=0;whiteSpace=wrap;html=1;fillColor=#d5e8d4;strokeColor=#82b366;fontColor=#000000;" parent="p5aGoZD3rxq6KE_4j5Kq-169" vertex="1"><mxGeometry x="35" y="295" width="40" height="20" as="geometry"/></mxCell><mxCell id="p5aGoZD3rxq6KE_4j5Kq-96" value="Sub" style="text;html=1;strokeColor=none;fillColor=none;align=center;verticalAlign=middle;whiteSpace=wrap;rounded=0;fontColor=#000000;" parent="p5aGoZD3rxq6KE_4j5Kq-169" vertex="1"><mxGeometry x="35" y="295" width="40" height="20" as="geometry"/></mxCell><mxCell id="p5aGoZD3rxq6KE_4j5Kq-97" value="" style="rounded=0;whiteSpace=wrap;html=1;fillColor=#d5e8d4;strokeColor=#82b366;fontColor=#000000;" parent="p5aGoZD3rxq6KE_4j5Kq-169" vertex="1"><mxGeometry x="35" y="315" width="40" height="20" as="geometry"/></mxCell><mxCell id="p5aGoZD3rxq6KE_4j5Kq-98" value="Sub" style="text;html=1;strokeColor=none;fillColor=none;align=center;verticalAlign=middle;whiteSpace=wrap;rounded=0;fontColor=#000000;" parent="p5aGoZD3rxq6KE_4j5Kq-169" vertex="1"><mxGeometry x="35" y="315" width="40" height="20" as="geometry"/></mxCell><mxCell id="p5aGoZD3rxq6KE_4j5Kq-99" value="" style="rounded=0;whiteSpace=wrap;html=1;fillColor=#d5e8d4;strokeColor=#82b366;fontColor=#000000;" parent="p5aGoZD3rxq6KE_4j5Kq-169" vertex="1"><mxGeometry x="95" y="275" width="40" height="20" as="geometry"/></mxCell><mxCell id="p5aGoZD3rxq6KE_4j5Kq-100" value="Sub" style="text;html=1;strokeColor=none;fillColor=none;align=center;verticalAlign=middle;whiteSpace=wrap;rounded=0;fontColor=#000000;" parent="p5aGoZD3rxq6KE_4j5Kq-169" vertex="1"><mxGeometry x="95" y="275" width="40" height="20" as="geometry"/></mxCell><mxCell id="p5aGoZD3rxq6KE_4j5Kq-101" value="" style="rounded=0;whiteSpace=wrap;html=1;fillColor=#d5e8d4;strokeColor=#82b366;fontColor=#000000;" parent="p5aGoZD3rxq6KE_4j5Kq-169" vertex="1"><mxGeometry x="95" y="295" width="40" height="20" as="geometry"/></mxCell><mxCell id="p5aGoZD3rxq6KE_4j5Kq-102" value="Sub" style="text;html=1;strokeColor=none;fillColor=none;align=center;verticalAlign=middle;whiteSpace=wrap;rounded=0;fontColor=#000000;" parent="p5aGoZD3rxq6KE_4j5Kq-169" vertex="1"><mxGeometry x="95" y="295" width="40" height="20" as="geometry"/></mxCell><mxCell id="p5aGoZD3rxq6KE_4j5Kq-103" value="" style="rounded=0;whiteSpace=wrap;html=1;fillColor=#d5e8d4;strokeColor=#82b366;fontColor=#000000;" parent="p5aGoZD3rxq6KE_4j5Kq-169" vertex="1"><mxGeometry x="95" y="315" width="40" height="20" as="geometry"/></mxCell><mxCell id="p5aGoZD3rxq6KE_4j5Kq-104" value="Sub" style="text;html=1;strokeColor=none;fillColor=none;align=center;verticalAlign=middle;whiteSpace=wrap;rounded=0;fontColor=#000000;" parent="p5aGoZD3rxq6KE_4j5Kq-169" vertex="1"><mxGeometry x="95" y="315" width="40" height="20" as="geometry"/></mxCell><mxCell id="p5aGoZD3rxq6KE_4j5Kq-105" value="" style="rounded=0;whiteSpace=wrap;html=1;fillColor=#d5e8d4;strokeColor=#82b366;fontColor=#000000;" parent="p5aGoZD3rxq6KE_4j5Kq-169" vertex="1"><mxGeometry x="155" y="275" width="40" height="20" as="geometry"/></mxCell><mxCell id="p5aGoZD3rxq6KE_4j5Kq-106" value="Sub" style="text;html=1;strokeColor=none;fillColor=none;align=center;verticalAlign=middle;whiteSpace=wrap;rounded=0;fontColor=#000000;" parent="p5aGoZD3rxq6KE_4j5Kq-169" vertex="1"><mxGeometry x="155" y="275" width="40" height="20" as="geometry"/></mxCell><mxCell id="p5aGoZD3rxq6KE_4j5Kq-107" value="" style="rounded=0;whiteSpace=wrap;html=1;fillColor=#d5e8d4;strokeColor=#82b366;fontColor=#000000;" parent="p5aGoZD3rxq6KE_4j5Kq-169" vertex="1"><mxGeometry x="155" y="295" width="40" height="20" as="geometry"/></mxCell><mxCell id="p5aGoZD3rxq6KE_4j5Kq-108" value="Sub" style="text;html=1;strokeColor=none;fillColor=none;align=center;verticalAlign=middle;whiteSpace=wrap;rounded=0;fontColor=#000000;" parent="p5aGoZD3rxq6KE_4j5Kq-169" vertex="1"><mxGeometry x="155" y="295" width="40" height="20" as="geometry"/></mxCell><mxCell id="p5aGoZD3rxq6KE_4j5Kq-109" value="" style="rounded=0;whiteSpace=wrap;html=1;fillColor=#d5e8d4;strokeColor=#82b366;fontColor=#000000;" parent="p5aGoZD3rxq6KE_4j5Kq-169" vertex="1"><mxGeometry x="155" y="315" width="40" height="20" as="geometry"/></mxCell><mxCell id="p5aGoZD3rxq6KE_4j5Kq-110" value="Sub" style="text;html=1;strokeColor=none;fillColor=none;align=center;verticalAlign=middle;whiteSpace=wrap;rounded=0;fontColor=#000000;" parent="p5aGoZD3rxq6KE_4j5Kq-169" vertex="1"><mxGeometry x="155" y="315" width="40" height="20" as="geometry"/></mxCell><mxCell id="p5aGoZD3rxq6KE_4j5Kq-166" value="Project" style="text;html=1;strokeColor=none;fillColor=none;align=center;verticalAlign=middle;whiteSpace=wrap;rounded=0;fontColor=#000000;" parent="p5aGoZD3rxq6KE_4j5Kq-169" vertex="1"><mxGeometry x="200" y="10" width="40" height="20" as="geometry"/></mxCell><mxCell id="p5aGoZD3rxq6KE_4j5Kq-167" value="" style="group;fontColor=#000000;" parent="p5aGoZD3rxq6KE_4j5Kq-169" vertex="1" connectable="0"><mxGeometry x="230" y="210" width="200" height="140" as="geometry"/></mxCell><mxCell id="p5aGoZD3rxq6KE_4j5Kq-138" value="" style="rounded=0;whiteSpace=wrap;html=1;fillColor=#f8cecc;strokeColor=#b85450;fontColor=#000000;" parent="p5aGoZD3rxq6KE_4j5Kq-167" vertex="1"><mxGeometry width="200" height="140" as="geometry"/></mxCell><mxCell id="p5aGoZD3rxq6KE_4j5Kq-141" value="" style="rounded=0;whiteSpace=wrap;html=1;fillColor=#dae8fc;strokeColor=#6c8ebf;fontColor=#000000;" parent="p5aGoZD3rxq6KE_4j5Kq-167" vertex="1"><mxGeometry x="75" y="40" width="50" height="90" as="geometry"/></mxCell><mxCell id="p5aGoZD3rxq6KE_4j5Kq-142" value="Task" style="text;html=1;strokeColor=none;fillColor=none;align=center;verticalAlign=middle;whiteSpace=wrap;rounded=0;fontColor=#000000;" parent="p5aGoZD3rxq6KE_4j5Kq-167" vertex="1"><mxGeometry x="80" y="45" width="40" height="20" as="geometry"/></mxCell><mxCell id="p5aGoZD3rxq6KE_4j5Kq-143" value="" style="rounded=0;whiteSpace=wrap;html=1;fillColor=#dae8fc;strokeColor=#6c8ebf;fontColor=#000000;" parent="p5aGoZD3rxq6KE_4j5Kq-167" vertex="1"><mxGeometry x="135" y="40" width="50" height="90" as="geometry"/></mxCell><mxCell id="p5aGoZD3rxq6KE_4j5Kq-144" value="Task" style="text;html=1;strokeColor=none;fillColor=none;align=center;verticalAlign=middle;whiteSpace=wrap;rounded=0;fontColor=#000000;" parent="p5aGoZD3rxq6KE_4j5Kq-167" vertex="1"><mxGeometry x="140" y="45" width="40" height="20" as="geometry"/></mxCell><mxCell id="p5aGoZD3rxq6KE_4j5Kq-145" value="Mission" style="text;html=1;strokeColor=none;fillColor=none;align=center;verticalAlign=middle;whiteSpace=wrap;rounded=0;fontColor=#000000;" parent="p5aGoZD3rxq6KE_4j5Kq-167" vertex="1"><mxGeometry x="80" y="10" width="40" height="20" as="geometry"/></mxCell><mxCell id="p5aGoZD3rxq6KE_4j5Kq-152" value="" style="rounded=0;whiteSpace=wrap;html=1;fillColor=#d5e8d4;strokeColor=#82b366;fontColor=#000000;" parent="p5aGoZD3rxq6KE_4j5Kq-167" vertex="1"><mxGeometry x="80" y="65" width="40" height="20" as="geometry"/></mxCell><mxCell id="p5aGoZD3rxq6KE_4j5Kq-153" value="Sub" style="text;html=1;strokeColor=none;fillColor=none;align=center;verticalAlign=middle;whiteSpace=wrap;rounded=0;fontColor=#000000;" parent="p5aGoZD3rxq6KE_4j5Kq-167" vertex="1"><mxGeometry x="80" y="65" width="40" height="20" as="geometry"/></mxCell><mxCell id="p5aGoZD3rxq6KE_4j5Kq-154" value="" style="rounded=0;whiteSpace=wrap;html=1;fillColor=#d5e8d4;strokeColor=#82b366;fontColor=#000000;" parent="p5aGoZD3rxq6KE_4j5Kq-167" vertex="1"><mxGeometry x="80" y="85" width="40" height="20" as="geometry"/></mxCell><mxCell id="p5aGoZD3rxq6KE_4j5Kq-155" value="Sub" style="text;html=1;strokeColor=none;fillColor=none;align=center;verticalAlign=middle;whiteSpace=wrap;rounded=0;fontColor=#000000;" parent="p5aGoZD3rxq6KE_4j5Kq-167" vertex="1"><mxGeometry x="80" y="85" width="40" height="20" as="geometry"/></mxCell><mxCell id="p5aGoZD3rxq6KE_4j5Kq-156" value="" style="rounded=0;whiteSpace=wrap;html=1;fillColor=#d5e8d4;strokeColor=#82b366;fontColor=#000000;" parent="p5aGoZD3rxq6KE_4j5Kq-167" vertex="1"><mxGeometry x="80" y="105" width="40" height="20" as="geometry"/></mxCell><mxCell id="p5aGoZD3rxq6KE_4j5Kq-157" value="Sub" style="text;html=1;strokeColor=none;fillColor=none;align=center;verticalAlign=middle;whiteSpace=wrap;rounded=0;fontColor=#000000;" parent="p5aGoZD3rxq6KE_4j5Kq-167" vertex="1"><mxGeometry x="80" y="105" width="40" height="20" as="geometry"/></mxCell><mxCell id="p5aGoZD3rxq6KE_4j5Kq-158" value="" style="rounded=0;whiteSpace=wrap;html=1;fillColor=#d5e8d4;strokeColor=#82b366;fontColor=#000000;" parent="p5aGoZD3rxq6KE_4j5Kq-167" vertex="1"><mxGeometry x="140" y="65" width="40" height="20" as="geometry"/></mxCell><mxCell id="p5aGoZD3rxq6KE_4j5Kq-159" value="Sub" style="text;html=1;strokeColor=none;fillColor=none;align=center;verticalAlign=middle;whiteSpace=wrap;rounded=0;fontColor=#000000;" parent="p5aGoZD3rxq6KE_4j5Kq-167" vertex="1"><mxGeometry x="140" y="65" width="40" height="20" as="geometry"/></mxCell><mxCell id="p5aGoZD3rxq6KE_4j5Kq-160" value="" style="rounded=0;whiteSpace=wrap;html=1;fillColor=#d5e8d4;strokeColor=#82b366;fontColor=#000000;" parent="p5aGoZD3rxq6KE_4j5Kq-167" vertex="1"><mxGeometry x="140" y="85" width="40" height="20" as="geometry"/></mxCell><mxCell id="p5aGoZD3rxq6KE_4j5Kq-161" value="Sub" style="text;html=1;strokeColor=none;fillColor=none;align=center;verticalAlign=middle;whiteSpace=wrap;rounded=0;fontColor=#000000;" parent="p5aGoZD3rxq6KE_4j5Kq-167" vertex="1"><mxGeometry x="140" y="85" width="40" height="20" as="geometry"/></mxCell><mxCell id="p5aGoZD3rxq6KE_4j5Kq-162" value="" style="rounded=0;whiteSpace=wrap;html=1;fillColor=#d5e8d4;strokeColor=#82b366;fontColor=#000000;" parent="p5aGoZD3rxq6KE_4j5Kq-167" vertex="1"><mxGeometry x="140" y="105" width="40" height="20" as="geometry"/></mxCell><mxCell id="p5aGoZD3rxq6KE_4j5Kq-163" value="Sub" style="text;html=1;strokeColor=none;fillColor=none;align=center;verticalAlign=middle;whiteSpace=wrap;rounded=0;fontColor=#000000;" parent="p5aGoZD3rxq6KE_4j5Kq-167" vertex="1"><mxGeometry x="140" y="105" width="40" height="20" as="geometry"/></mxCell><mxCell id="p5aGoZD3rxq6KE_4j5Kq-168" value="" style="group;fontColor=#000000;" parent="p5aGoZD3rxq6KE_4j5Kq-167" vertex="1" connectable="0"><mxGeometry x="15" y="40" width="50" height="90" as="geometry"/></mxCell><mxCell id="p5aGoZD3rxq6KE_4j5Kq-139" value="" style="rounded=0;whiteSpace=wrap;html=1;fillColor=#dae8fc;strokeColor=#6c8ebf;fontColor=#000000;" parent="p5aGoZD3rxq6KE_4j5Kq-168" vertex="1"><mxGeometry width="50" height="90" as="geometry"/></mxCell><mxCell id="p5aGoZD3rxq6KE_4j5Kq-140" value="Task" style="text;html=1;strokeColor=none;fillColor=none;align=center;verticalAlign=middle;whiteSpace=wrap;rounded=0;fontColor=#000000;" parent="p5aGoZD3rxq6KE_4j5Kq-168" vertex="1"><mxGeometry x="5" y="5" width="40" height="20" as="geometry"/></mxCell><mxCell id="p5aGoZD3rxq6KE_4j5Kq-146" value="" style="rounded=0;whiteSpace=wrap;html=1;fillColor=#d5e8d4;strokeColor=#82b366;fontColor=#000000;" parent="p5aGoZD3rxq6KE_4j5Kq-168" vertex="1"><mxGeometry x="5" y="25" width="40" height="20" as="geometry"/></mxCell><mxCell id="p5aGoZD3rxq6KE_4j5Kq-147" value="Sub" style="text;html=1;strokeColor=none;fillColor=none;align=center;verticalAlign=middle;whiteSpace=wrap;rounded=0;fontColor=#000000;" parent="p5aGoZD3rxq6KE_4j5Kq-168" vertex="1"><mxGeometry x="5" y="25" width="40" height="20" as="geometry"/></mxCell><mxCell id="p5aGoZD3rxq6KE_4j5Kq-148" value="" style="rounded=0;whiteSpace=wrap;html=1;fillColor=#d5e8d4;strokeColor=#82b366;fontColor=#000000;" parent="p5aGoZD3rxq6KE_4j5Kq-168" vertex="1"><mxGeometry x="5" y="45" width="40" height="20" as="geometry"/></mxCell><mxCell id="p5aGoZD3rxq6KE_4j5Kq-149" value="Sub" style="text;html=1;strokeColor=none;fillColor=none;align=center;verticalAlign=middle;whiteSpace=wrap;rounded=0;fontColor=#000000;" parent="p5aGoZD3rxq6KE_4j5Kq-168" vertex="1"><mxGeometry x="5" y="45" width="40" height="20" as="geometry"/></mxCell><mxCell id="p5aGoZD3rxq6KE_4j5Kq-150" value="" style="rounded=0;whiteSpace=wrap;html=1;fillColor=#d5e8d4;strokeColor=#82b366;fontColor=#000000;" parent="p5aGoZD3rxq6KE_4j5Kq-168" vertex="1"><mxGeometry x="5" y="65" width="40" height="20" as="geometry"/></mxCell><mxCell id="p5aGoZD3rxq6KE_4j5Kq-151" value="Sub" style="text;html=1;strokeColor=none;fillColor=none;align=center;verticalAlign=middle;whiteSpace=wrap;rounded=0;fontColor=#000000;" parent="p5aGoZD3rxq6KE_4j5Kq-168" vertex="1"><mxGeometry x="5" y="65" width="40" height="20" as="geometry"/></mxCell><mxCell id="p5aGoZD3rxq6KE_4j5Kq-172" value="" style="endArrow=classic;html=1;exitX=0.5;exitY=0;exitDx=0;exitDy=0;fontColor=#000000;" parent="p5aGoZD3rxq6KE_4j5Kq-205" source="p5aGoZD3rxq6KE_4j5Kq-165" edge="1"><mxGeometry width="50" height="50" relative="1" as="geometry"><mxPoint x="170" y="311.20000000000005" as="sourcePoint"/><mxPoint x="220" y="90" as="targetPoint"/></mxGeometry></mxCell><mxCell id="p5aGoZD3rxq6KE_4j5Kq-193" value="" style="group;fontColor=#000000;" parent="p5aGoZD3rxq6KE_4j5Kq-205" vertex="1" connectable="0"><mxGeometry x="70" y="580" width="310" height="80" as="geometry"/></mxCell><mxCell id="p5aGoZD3rxq6KE_4j5Kq-195" value="" style="rounded=1;whiteSpace=wrap;html=1;fillColor=#ffe6cc;strokeColor=#d79b00;fontColor=#000000;" parent="p5aGoZD3rxq6KE_4j5Kq-193" vertex="1"><mxGeometry x="-10" y="-10" width="320" height="90" as="geometry"/></mxCell><mxCell id="p5aGoZD3rxq6KE_4j5Kq-196" value="" style="group;fontColor=#000000;" parent="p5aGoZD3rxq6KE_4j5Kq-193" vertex="1" connectable="0"><mxGeometry width="302" height="60" as="geometry"/></mxCell><mxCell id="p5aGoZD3rxq6KE_4j5Kq-177" value="User" style="shape=umlActor;verticalLabelPosition=bottom;verticalAlign=top;html=1;outlineConnect=0;fontColor=#000000;fillColor=none;strokeColor=#080808;" parent="p5aGoZD3rxq6KE_4j5Kq-196" vertex="1"><mxGeometry width="30" height="60" as="geometry"/></mxCell><mxCell id="p5aGoZD3rxq6KE_4j5Kq-186" value="User" style="shape=umlActor;verticalLabelPosition=bottom;verticalAlign=top;html=1;outlineConnect=0;fontColor=#000000;fillColor=none;strokeColor=#080808;" parent="p5aGoZD3rxq6KE_4j5Kq-196" vertex="1"><mxGeometry x="40" width="30" height="60" as="geometry"/></mxCell><mxCell id="p5aGoZD3rxq6KE_4j5Kq-187" value="User" style="shape=umlActor;verticalLabelPosition=bottom;verticalAlign=top;html=1;outlineConnect=0;fontColor=#000000;fillColor=none;strokeColor=#080808;" parent="p5aGoZD3rxq6KE_4j5Kq-196" vertex="1"><mxGeometry x="76" width="30" height="60" as="geometry"/></mxCell><mxCell id="p5aGoZD3rxq6KE_4j5Kq-188" value="User" style="shape=umlActor;verticalLabelPosition=bottom;verticalAlign=top;html=1;outlineConnect=0;fontColor=#000000;fillColor=none;strokeColor=#080808;" parent="p5aGoZD3rxq6KE_4j5Kq-196" vertex="1"><mxGeometry x="116" width="30" height="60" as="geometry"/></mxCell><mxCell id="p5aGoZD3rxq6KE_4j5Kq-189" value="User" style="shape=umlActor;verticalLabelPosition=bottom;verticalAlign=top;html=1;outlineConnect=0;fontColor=#000000;fillColor=none;strokeColor=#080808;" parent="p5aGoZD3rxq6KE_4j5Kq-196" vertex="1"><mxGeometry x="156" width="30" height="60" as="geometry"/></mxCell><mxCell id="p5aGoZD3rxq6KE_4j5Kq-190" value="User" style="shape=umlActor;verticalLabelPosition=bottom;verticalAlign=top;html=1;outlineConnect=0;fontColor=#000000;fillColor=none;strokeColor=#080808;" parent="p5aGoZD3rxq6KE_4j5Kq-196" vertex="1"><mxGeometry x="196" width="30" height="60" as="geometry"/></mxCell><mxCell id="p5aGoZD3rxq6KE_4j5Kq-191" value="User" style="shape=umlActor;verticalLabelPosition=bottom;verticalAlign=top;html=1;outlineConnect=0;fontColor=#000000;fillColor=none;strokeColor=#080808;" parent="p5aGoZD3rxq6KE_4j5Kq-196" vertex="1"><mxGeometry x="232" width="30" height="60" as="geometry"/></mxCell><mxCell id="p5aGoZD3rxq6KE_4j5Kq-192" value="User" style="shape=umlActor;verticalLabelPosition=bottom;verticalAlign=top;html=1;outlineConnect=0;fontColor=#000000;fillColor=none;strokeColor=#080808;" parent="p5aGoZD3rxq6KE_4j5Kq-196" vertex="1"><mxGeometry x="272" width="30" height="60" as="geometry"/></mxCell><mxCell id="p5aGoZD3rxq6KE_4j5Kq-197" value="" style="shape=flexArrow;endArrow=classic;html=1;entryX=0.5;entryY=1;entryDx=0;entryDy=0;fillColor=#ffe6cc;strokeColor=#d79b00;fontColor=#000000;" parent="p5aGoZD3rxq6KE_4j5Kq-205" source="p5aGoZD3rxq6KE_4j5Kq-195" target="p5aGoZD3rxq6KE_4j5Kq-165" edge="1"><mxGeometry width="50" height="50" relative="1" as="geometry"><mxPoint x="220" y="570" as="sourcePoint"/><mxPoint x="270" y="520" as="targetPoint"/></mxGeometry></mxCell><mxCell id="p5aGoZD3rxq6KE_4j5Kq-199" value="" style="shape=note;whiteSpace=wrap;html=1;backgroundOutline=1;darkOpacity=0.05;size=14;fillColor=#d5e8d4;strokeColor=#82b366;fontColor=#000000;" parent="p5aGoZD3rxq6KE_4j5Kq-205" vertex="1"><mxGeometry x="340" width="60" height="40" as="geometry"/></mxCell><mxCell id="p5aGoZD3rxq6KE_4j5Kq-200" value="Team" style="text;html=1;strokeColor=none;fillColor=none;align=center;verticalAlign=middle;whiteSpace=wrap;rounded=0;fontColor=#000000;" parent="p5aGoZD3rxq6KE_4j5Kq-205" vertex="1"><mxGeometry x="345" y="10" width="40" height="20" as="geometry"/></mxCell><mxCell id="p5aGoZD3rxq6KE_4j5Kq-201" value="" style="shape=note;whiteSpace=wrap;html=1;backgroundOutline=1;darkOpacity=0.05;size=14;fillColor=#ffe6cc;strokeColor=#d79b00;fontColor=#000000;" parent="p5aGoZD3rxq6KE_4j5Kq-205" vertex="1"><mxGeometry x="340" y="60" width="60" height="40" as="geometry"/></mxCell><mxCell id="p5aGoZD3rxq6KE_4j5Kq-202" value="User" style="text;html=1;strokeColor=none;fillColor=none;align=center;verticalAlign=middle;whiteSpace=wrap;rounded=0;fontColor=#000000;" parent="p5aGoZD3rxq6KE_4j5Kq-205" vertex="1"><mxGeometry x="345" y="70" width="40" height="20" as="geometry"/></mxCell><mxCell id="p5aGoZD3rxq6KE_4j5Kq-236" value="" style="rounded=0;whiteSpace=wrap;html=1;fillColor=#d5e8d4;strokeColor=#82b366;fontColor=#000000;" parent="9DhNV3CGlzZHcyGwgHfw-4" vertex="1"><mxGeometry x="540" y="500" width="280" height="170" as="geometry"/></mxCell><mxCell id="p5aGoZD3rxq6KE_4j5Kq-237" value="Subtask Properties" style="text;html=1;strokeColor=none;fillColor=none;align=center;verticalAlign=middle;whiteSpace=wrap;rounded=0;fontColor=#000000;" parent="9DhNV3CGlzZHcyGwgHfw-4" vertex="1"><mxGeometry x="540" y="500" width="280" height="20" as="geometry"/></mxCell><mxCell id="p5aGoZD3rxq6KE_4j5Kq-238" value="" style="group;fontColor=#000000;" parent="9DhNV3CGlzZHcyGwgHfw-4" vertex="1" connectable="0"><mxGeometry x="510" y="40" width="400" height="350" as="geometry"/></mxCell><mxCell id="p5aGoZD3rxq6KE_4j5Kq-206" value="" style="rounded=0;whiteSpace=wrap;html=1;fillColor=#d5e8d4;strokeColor=#82b366;fontColor=#000000;" parent="p5aGoZD3rxq6KE_4j5Kq-238" vertex="1"><mxGeometry y="150" width="400" height="200" as="geometry"/></mxCell><mxCell id="p5aGoZD3rxq6KE_4j5Kq-207" value="Team" style="text;html=1;strokeColor=none;fillColor=none;align=center;verticalAlign=middle;whiteSpace=wrap;rounded=0;fontColor=#000000;" parent="p5aGoZD3rxq6KE_4j5Kq-238" vertex="1"><mxGeometry x="180" y="160" width="40" height="20" as="geometry"/></mxCell><mxCell id="p5aGoZD3rxq6KE_4j5Kq-228" value="" style="group;fontColor=#000000;" parent="p5aGoZD3rxq6KE_4j5Kq-238" vertex="1" connectable="0"><mxGeometry x="20" y="185" width="360" height="150" as="geometry"/></mxCell><mxCell id="p5aGoZD3rxq6KE_4j5Kq-224" value="" style="rounded=0;whiteSpace=wrap;html=1;fillColor=#dae8fc;strokeColor=#6c8ebf;fontColor=#000000;" parent="p5aGoZD3rxq6KE_4j5Kq-228" vertex="1"><mxGeometry width="360" height="150" as="geometry"/></mxCell><mxCell id="p5aGoZD3rxq6KE_4j5Kq-225" value="Project" style="text;html=1;strokeColor=none;fillColor=none;align=center;verticalAlign=middle;whiteSpace=wrap;rounded=0;fontColor=#000000;" parent="p5aGoZD3rxq6KE_4j5Kq-228" vertex="1"><mxGeometry x="160" y="130" width="40" height="20" as="geometry"/></mxCell><mxCell id="p5aGoZD3rxq6KE_4j5Kq-226" value="" style="rounded=0;whiteSpace=wrap;html=1;fillColor=#e1d5e7;strokeColor=#9673a6;fontColor=#000000;" parent="p5aGoZD3rxq6KE_4j5Kq-228" vertex="1"><mxGeometry x="195" width="165" height="120" as="geometry"/></mxCell><mxCell id="p5aGoZD3rxq6KE_4j5Kq-209" value="User" style="shape=umlActor;verticalLabelPosition=bottom;verticalAlign=top;html=1;outlineConnect=0;fontColor=#000000;strokeColor=#030303;fillColor=none;" parent="p5aGoZD3rxq6KE_4j5Kq-228" vertex="1"><mxGeometry x="5" y="10" width="30" height="60" as="geometry"/></mxCell><mxCell id="p5aGoZD3rxq6KE_4j5Kq-216" value="User" style="shape=umlActor;verticalLabelPosition=bottom;verticalAlign=top;html=1;outlineConnect=0;fontColor=#000000;strokeColor=#030303;fillColor=none;" parent="p5aGoZD3rxq6KE_4j5Kq-228" vertex="1"><mxGeometry x="45" y="10" width="30" height="60" as="geometry"/></mxCell><mxCell id="p5aGoZD3rxq6KE_4j5Kq-217" value="User" style="shape=umlActor;verticalLabelPosition=bottom;verticalAlign=top;html=1;outlineConnect=0;fontColor=#000000;strokeColor=#030303;fillColor=none;" parent="p5aGoZD3rxq6KE_4j5Kq-228" vertex="1"><mxGeometry x="85" y="10" width="30" height="60" as="geometry"/></mxCell><mxCell id="p5aGoZD3rxq6KE_4j5Kq-218" value="User" style="shape=umlActor;verticalLabelPosition=bottom;verticalAlign=top;html=1;outlineConnect=0;fontColor=#000000;strokeColor=#030303;fillColor=none;" parent="p5aGoZD3rxq6KE_4j5Kq-228" vertex="1"><mxGeometry x="205" y="10" width="30" height="60" as="geometry"/></mxCell><mxCell id="p5aGoZD3rxq6KE_4j5Kq-219" value="User" style="shape=umlActor;verticalLabelPosition=bottom;verticalAlign=top;html=1;outlineConnect=0;fontColor=#000000;strokeColor=#030303;fillColor=none;" parent="p5aGoZD3rxq6KE_4j5Kq-228" vertex="1"><mxGeometry x="165" y="10" width="30" height="60" as="geometry"/></mxCell><mxCell id="p5aGoZD3rxq6KE_4j5Kq-220" value="User" style="shape=umlActor;verticalLabelPosition=bottom;verticalAlign=top;html=1;outlineConnect=0;fontColor=#000000;strokeColor=#030303;fillColor=none;" parent="p5aGoZD3rxq6KE_4j5Kq-228" vertex="1"><mxGeometry x="125" y="10" width="30" height="60" as="geometry"/></mxCell><mxCell id="p5aGoZD3rxq6KE_4j5Kq-221" value="User" style="shape=umlActor;verticalLabelPosition=bottom;verticalAlign=top;html=1;outlineConnect=0;fontColor=#000000;strokeColor=#030303;fillColor=none;" parent="p5aGoZD3rxq6KE_4j5Kq-228" vertex="1"><mxGeometry x="325" y="10" width="30" height="60" as="geometry"/></mxCell><mxCell id="p5aGoZD3rxq6KE_4j5Kq-222" value="User" style="shape=umlActor;verticalLabelPosition=bottom;verticalAlign=top;html=1;outlineConnect=0;fontColor=#000000;strokeColor=#030303;fillColor=none;" parent="p5aGoZD3rxq6KE_4j5Kq-228" vertex="1"><mxGeometry x="285" y="10" width="30" height="60" as="geometry"/></mxCell><mxCell id="p5aGoZD3rxq6KE_4j5Kq-223" value="User" style="shape=umlActor;verticalLabelPosition=bottom;verticalAlign=top;html=1;outlineConnect=0;fontColor=#000000;strokeColor=#030303;fillColor=none;" parent="p5aGoZD3rxq6KE_4j5Kq-228" vertex="1"><mxGeometry x="245" y="10" width="30" height="60" as="geometry"/></mxCell><mxCell id="p5aGoZD3rxq6KE_4j5Kq-227" value="Project with part of team" style="text;html=1;strokeColor=none;fillColor=none;align=center;verticalAlign=middle;whiteSpace=wrap;rounded=0;fontColor=#000000;" parent="p5aGoZD3rxq6KE_4j5Kq-228" vertex="1"><mxGeometry x="197.5" y="100" width="160" height="20" as="geometry"/></mxCell><mxCell id="p5aGoZD3rxq6KE_4j5Kq-230" value="" style="group;fontColor=#000000;" parent="p5aGoZD3rxq6KE_4j5Kq-238" vertex="1" connectable="0"><mxGeometry x="140" width="120" height="80" as="geometry"/></mxCell><mxCell id="p5aGoZD3rxq6KE_4j5Kq-231" value="" style="ellipse;whiteSpace=wrap;html=1;fillColor=#dae8fc;strokeColor=#6c8ebf;fontColor=#000000;" parent="p5aGoZD3rxq6KE_4j5Kq-230" vertex="1"><mxGeometry width="120" height="80" as="geometry"/></mxCell><mxCell id="p5aGoZD3rxq6KE_4j5Kq-232" value="Owner" style="text;html=1;strokeColor=none;fillColor=none;align=center;verticalAlign=middle;whiteSpace=wrap;rounded=0;fontColor=#000000;" parent="p5aGoZD3rxq6KE_4j5Kq-230" vertex="1"><mxGeometry x="40" y="30" width="40" height="20" as="geometry"/></mxCell><mxCell id="p5aGoZD3rxq6KE_4j5Kq-233" value="" style="endArrow=classic;html=1;exitX=0.5;exitY=0;exitDx=0;exitDy=0;fontColor=#000000;" parent="p5aGoZD3rxq6KE_4j5Kq-238" edge="1"><mxGeometry width="50" height="50" relative="1" as="geometry"><mxPoint x="200" y="151.20000000000005" as="sourcePoint"/><mxPoint x="200" y="80" as="targetPoint"/></mxGeometry></mxCell><mxCell id="p5aGoZD3rxq6KE_4j5Kq-234" value="" style="shape=note;whiteSpace=wrap;html=1;backgroundOutline=1;darkOpacity=0.05;size=14;fillColor=#ffe6cc;strokeColor=#d79b00;fontColor=#000000;" parent="p5aGoZD3rxq6KE_4j5Kq-238" vertex="1"><mxGeometry x="220" width="60" height="40" as="geometry"/></mxCell><mxCell id="p5aGoZD3rxq6KE_4j5Kq-235" value="User" style="text;html=1;strokeColor=none;fillColor=none;align=center;verticalAlign=middle;whiteSpace=wrap;rounded=0;fontColor=#000000;" parent="p5aGoZD3rxq6KE_4j5Kq-238" vertex="1"><mxGeometry x="225" y="10" width="40" height="20" as="geometry"/></mxCell><mxCell id="p5aGoZD3rxq6KE_4j5Kq-239" value="- Title&lt;br&gt;- Description&lt;br&gt;- Comments&lt;br&gt;- Status&lt;br&gt;- Due Date&lt;br&gt;- Start Date&lt;br&gt;- Assignee&lt;br&gt;- Responsible&lt;br&gt;- Attachments (Image, File, VoiceClip, Video)&lt;br&gt;- Priorities" style="text;html=1;strokeColor=none;align=left;verticalAlign=middle;whiteSpace=wrap;rounded=0;fontColor=#000000;" parent="9DhNV3CGlzZHcyGwgHfw-4" vertex="1"><mxGeometry x="555" y="530" width="250" height="120" as="geometry"/></mxCell><mxCell id="p5aGoZD3rxq6KE_4j5Kq-248" value="&lt;div style=&quot;text-align: left&quot;&gt;- Multiple Responsibles&lt;/div&gt;&lt;div style=&quot;text-align: left&quot;&gt;- Subtask Lists&lt;/div&gt;&lt;div style=&quot;text-align: left&quot;&gt;- &quot;Make substaks' responsibles responsible for this task&quot; option&lt;/div&gt;" style="text;html=1;strokeColor=none;fillColor=none;align=center;verticalAlign=middle;whiteSpace=wrap;rounded=0;fontColor=#000000;" parent="9DhNV3CGlzZHcyGwgHfw-4" vertex="1"><mxGeometry x="540" y="680" width="280" height="50" as="geometry"/></mxCell><mxCell id="9DhNV3CGlzZHcyGwgHfw-2" value="Project" style="text;html=1;strokeColor=none;fillColor=none;align=center;verticalAlign=middle;whiteSpace=wrap;rounded=0;fontColor=#000000;" parent="9DhNV3CGlzZHcyGwgHfw-4" vertex="1"><mxGeometry x="660" y="410" width="40" height="20" as="geometry"/></mxCell><mxCell id="9DhNV3CGlzZHcyGwgHfw-3" value="- Status List&lt;br&gt;- Webhooks" style="text;html=1;strokeColor=none;fillColor=none;align=left;verticalAlign=middle;whiteSpace=wrap;rounded=0;fontColor=#000000;" parent="9DhNV3CGlzZHcyGwgHfw-4" vertex="1"><mxGeometry x="540" y="770" width="290" height="60" as="geometry"/></mxCell><mxCell id="9DhNV3CGlzZHcyGwgHfw-171" value="Architecture" style="swimlane;" parent="1" vertex="1"><mxGeometry width="1600" height="1800" as="geometry"/></mxCell><mxCell id="9DhNV3CGlzZHcyGwgHfw-337" value="" style="verticalLabelPosition=bottom;html=1;verticalAlign=top;strokeWidth=1;align=center;outlineConnect=0;dashed=0;outlineConnect=0;shape=mxgraph.aws3d.client;aspect=fixed;strokeColor=none;fillColor=#777777;" parent="9DhNV3CGlzZHcyGwgHfw-171" vertex="1"><mxGeometry x="482" y="123" width="60" height="104" as="geometry"/></mxCell><mxCell id="9DhNV3CGlzZHcyGwgHfw-338" value="" style="verticalLabelPosition=bottom;html=1;verticalAlign=top;strokeWidth=1;align=center;outlineConnect=0;dashed=0;outlineConnect=0;shape=mxgraph.aws3d.mobile_worker;aspect=fixed;strokeColor=none;fillColor=#777777;" parent="9DhNV3CGlzZHcyGwgHfw-171" vertex="1"><mxGeometry x="97" y="130" width="36" height="90" as="geometry"/></mxCell><mxCell id="9DhNV3CGlzZHcyGwgHfw-357" style="edgeStyle=orthogonalEdgeStyle;rounded=0;orthogonalLoop=1;jettySize=auto;html=1;" parent="9DhNV3CGlzZHcyGwgHfw-171" source="9DhNV3CGlzZHcyGwgHfw-344" target="9DhNV3CGlzZHcyGwgHfw-354" edge="1"><mxGeometry relative="1" as="geometry"/></mxCell><mxCell id="9DhNV3CGlzZHcyGwgHfw-344" value="" style="verticalLabelPosition=bottom;html=1;verticalAlign=top;strokeWidth=1;align=center;outlineConnect=0;dashed=0;outlineConnect=0;shape=mxgraph.aws3d.application2;fillColor=#86E83A;strokeColor=#B0F373;aspect=fixed;" parent="9DhNV3CGlzZHcyGwgHfw-171" vertex="1"><mxGeometry x="262" y="133.5" width="97.09" height="83" as="geometry"/></mxCell><mxCell id="9DhNV3CGlzZHcyGwgHfw-347" value="" style="endArrow=classic;html=1;" parent="9DhNV3CGlzZHcyGwgHfw-171" source="9DhNV3CGlzZHcyGwgHfw-337" target="9DhNV3CGlzZHcyGwgHfw-344" edge="1"><mxGeometry width="50" height="50" relative="1" as="geometry"><mxPoint x="332" y="553" as="sourcePoint"/><mxPoint x="382" y="503" as="targetPoint"/></mxGeometry></mxCell><mxCell id="9DhNV3CGlzZHcyGwgHfw-348" value="" style="endArrow=classic;html=1;" parent="9DhNV3CGlzZHcyGwgHfw-171" source="9DhNV3CGlzZHcyGwgHfw-338" target="9DhNV3CGlzZHcyGwgHfw-344" edge="1"><mxGeometry width="50" height="50" relative="1" as="geometry"><mxPoint x="332" y="553" as="sourcePoint"/><mxPoint x="382" y="503" as="targetPoint"/></mxGeometry></mxCell><mxCell id="9DhNV3CGlzZHcyGwgHfw-349" value="&lt;font style=&quot;font-size: 17px&quot;&gt;Web Platform &lt;br&gt;(name to be defined)&lt;br&gt;Svelte? Elm? Reason?&lt;br&gt;&lt;/font&gt;" style="text;html=1;strokeColor=none;fillColor=none;align=center;verticalAlign=middle;whiteSpace=wrap;rounded=0;" parent="9DhNV3CGlzZHcyGwgHfw-171" vertex="1"><mxGeometry x="222.31999999999994" y="80" width="176.45" height="50" as="geometry"/></mxCell><mxCell id="9DhNV3CGlzZHcyGwgHfw-351" value="" style="verticalLabelPosition=bottom;html=1;verticalAlign=top;strokeWidth=1;align=center;outlineConnect=0;dashed=0;outlineConnect=0;shape=mxgraph.aws3d.application2;fillColor=#86E83A;strokeColor=#B0F373;aspect=fixed;" parent="9DhNV3CGlzZHcyGwgHfw-171" vertex="1"><mxGeometry x="66.45000000000005" y="283" width="97.09" height="83" as="geometry"/></mxCell><mxCell id="9DhNV3CGlzZHcyGwgHfw-352" value="" style="endArrow=classic;html=1;" parent="9DhNV3CGlzZHcyGwgHfw-171" source="9DhNV3CGlzZHcyGwgHfw-338" target="9DhNV3CGlzZHcyGwgHfw-351" edge="1"><mxGeometry width="50" height="50" relative="1" as="geometry"><mxPoint x="332" y="503" as="sourcePoint"/><mxPoint x="382" y="453" as="targetPoint"/></mxGeometry></mxCell><mxCell id="9DhNV3CGlzZHcyGwgHfw-353" value="&lt;font style=&quot;font-size: 17px&quot;&gt;Mobile Platform &lt;br&gt;(name to be defined)&lt;br&gt;Native? Flutter?&lt;br&gt;&lt;/font&gt;" style="text;html=1;strokeColor=none;fillColor=none;align=center;verticalAlign=middle;whiteSpace=wrap;rounded=0;" parent="9DhNV3CGlzZHcyGwgHfw-171" vertex="1"><mxGeometry x="34.99" y="373" width="160" height="50" as="geometry"/></mxCell><mxCell id="9DhNV3CGlzZHcyGwgHfw-354" value="" style="verticalLabelPosition=bottom;html=1;verticalAlign=top;strokeWidth=1;align=center;outlineConnect=0;dashed=0;outlineConnect=0;shape=mxgraph.aws3d.customerGateway;fillColor=#ECECEC;strokeColor=#5E5E5E;aspect=fixed;" parent="9DhNV3CGlzZHcyGwgHfw-171" vertex="1"><mxGeometry x="252.19999999999993" y="473" width="116.7" height="102.8" as="geometry"/></mxCell><mxCell id="9DhNV3CGlzZHcyGwgHfw-355" value="" style="endArrow=classic;html=1;" parent="9DhNV3CGlzZHcyGwgHfw-171" source="9DhNV3CGlzZHcyGwgHfw-353" target="9DhNV3CGlzZHcyGwgHfw-354" edge="1"><mxGeometry width="50" height="50" relative="1" as="geometry"><mxPoint x="332" y="593" as="sourcePoint"/><mxPoint x="382" y="543" as="targetPoint"/></mxGeometry></mxCell><mxCell id="9DhNV3CGlzZHcyGwgHfw-358" value="" style="verticalLabelPosition=bottom;html=1;verticalAlign=top;strokeWidth=1;align=center;outlineConnect=0;dashed=0;outlineConnect=0;shape=mxgraph.aws3d.application;fillColor=#4286c5;strokeColor=#57A2D8;aspect=fixed;" parent="9DhNV3CGlzZHcyGwgHfw-171" vertex="1"><mxGeometry x="263.76" y="840" width="93.55" height="103.81" as="geometry"/></mxCell><mxCell id="9DhNV3CGlzZHcyGwgHfw-359" value="&lt;font style=&quot;font-size: 17px&quot;&gt;IAM Server&lt;br&gt;&lt;/font&gt;" style="text;html=1;strokeColor=none;fillColor=none;align=center;verticalAlign=middle;whiteSpace=wrap;rounded=0;" parent="9DhNV3CGlzZHcyGwgHfw-171" vertex="1"><mxGeometry x="235.54000000000002" y="943.81" width="150" height="50" as="geometry"/></mxCell><mxCell id="9DhNV3CGlzZHcyGwgHfw-362" value="" style="verticalLabelPosition=bottom;html=1;verticalAlign=top;strokeWidth=1;align=center;outlineConnect=0;dashed=0;outlineConnect=0;shape=mxgraph.aws3d.application;fillColor=#4286c5;strokeColor=#57A2D8;aspect=fixed;" parent="9DhNV3CGlzZHcyGwgHfw-171" vertex="1"><mxGeometry x="430" y="640" width="93.55" height="103.81" as="geometry"/></mxCell><mxCell id="9DhNV3CGlzZHcyGwgHfw-363" value="&lt;font style=&quot;font-size: 17px&quot;&gt;NagasuKujira&lt;br&gt;Rust+Actix&lt;br&gt;&lt;/font&gt;" style="text;html=1;strokeColor=none;fillColor=none;align=center;verticalAlign=middle;whiteSpace=wrap;rounded=0;" parent="9DhNV3CGlzZHcyGwgHfw-171" vertex="1"><mxGeometry x="503.54999999999995" y="666.9" width="171.23" height="50" as="geometry"/></mxCell><mxCell id="9DhNV3CGlzZHcyGwgHfw-366" value="" style="verticalLabelPosition=bottom;html=1;verticalAlign=top;strokeWidth=1;align=center;outlineConnect=0;dashed=0;outlineConnect=0;shape=mxgraph.aws3d.simpleDb;fillColor=#ECECEC;strokeColor=#5E5E5E;aspect=fixed;" parent="9DhNV3CGlzZHcyGwgHfw-171" vertex="1"><mxGeometry x="600" y="825.4" width="123" height="133" as="geometry"/></mxCell><mxCell id="9DhNV3CGlzZHcyGwgHfw-369" value="&lt;font style=&quot;font-size: 17px&quot;&gt;Postgres&lt;br&gt;&lt;/font&gt;" style="text;html=1;strokeColor=none;fillColor=none;align=center;verticalAlign=middle;whiteSpace=wrap;rounded=0;" parent="9DhNV3CGlzZHcyGwgHfw-171" vertex="1"><mxGeometry x="575.89" y="960" width="171.23" height="50" as="geometry"/></mxCell><mxCell id="9DhNV3CGlzZHcyGwgHfw-370" value="" style="endArrow=classic;startArrow=classic;html=1;" parent="9DhNV3CGlzZHcyGwgHfw-171" source="9DhNV3CGlzZHcyGwgHfw-358" target="9DhNV3CGlzZHcyGwgHfw-354" edge="1"><mxGeometry width="50" height="50" relative="1" as="geometry"><mxPoint x="610" y="700" as="sourcePoint"/><mxPoint x="660" y="650" as="targetPoint"/></mxGeometry></mxCell><mxCell id="9DhNV3CGlzZHcyGwgHfw-371" value="" style="endArrow=classic;startArrow=classic;html=1;" parent="9DhNV3CGlzZHcyGwgHfw-171" source="9DhNV3CGlzZHcyGwgHfw-362" target="9DhNV3CGlzZHcyGwgHfw-354" edge="1"><mxGeometry width="50" height="50" relative="1" as="geometry"><mxPoint x="610" y="700" as="sourcePoint"/><mxPoint x="660" y="650" as="targetPoint"/></mxGeometry></mxCell><mxCell id="9DhNV3CGlzZHcyGwgHfw-372" value="" style="endArrow=classic;startArrow=classic;html=1;" parent="9DhNV3CGlzZHcyGwgHfw-171" source="9DhNV3CGlzZHcyGwgHfw-358" target="9DhNV3CGlzZHcyGwgHfw-366" edge="1"><mxGeometry width="50" height="50" relative="1" as="geometry"><mxPoint x="610" y="700" as="sourcePoint"/><mxPoint x="660" y="650" as="targetPoint"/></mxGeometry></mxCell><mxCell id="9DhNV3CGlzZHcyGwgHfw-373" value="" style="endArrow=classic;startArrow=classic;html=1;" parent="9DhNV3CGlzZHcyGwgHfw-171" source="9DhNV3CGlzZHcyGwgHfw-362" target="9DhNV3CGlzZHcyGwgHfw-366" edge="1"><mxGeometry width="50" height="50" relative="1" as="geometry"><mxPoint x="610" y="700" as="sourcePoint"/><mxPoint x="660" y="650" as="targetPoint"/></mxGeometry></mxCell></root></mxGraphModel></diagram></mxfile>